<svg id="Camada_1" data-name="Camada 1" xmlns="http://www.w3.org/2000/svg" viewBox="0 0 630.15 138.04"><defs><style>.cls-1{fill:#c0434c;stroke-width:7.1px;}.cls-1,.cls-2,.cls-3{stroke:#3c3c3b;stroke-miterlimit:10;}.cls-2,.cls-3,.cls-5{fill:#fff;}.cls-2{stroke-width:6.95px;}.cls-3{stroke-width:7.11px;}.cls-4{fill:#3c3c3b;}</style></defs><title>logo-horizontal</title><rect class="cls-1" x="373.68" y="19.9" width="233.24" height="98.22"/><rect class="cls-2" x="21.08" y="19.9" width="292.92" height="98.22"/><rect class="cls-3" x="314" y="19.9" width="59.69" height="98.22"/><path class="cls-4" d="M61.72,94.85l-6.61-6.57V76.77a19.9,19.9,0,0,0,9.57,2.56c5.7,0,7.74-2.37,7.74-9.13V57.38H64.9L57.23,49.7v-12H84.88l7.67,7.67V76c0,13.84-7.41,22.21-19.58,22.21C68.15,98.22,63.84,96.94,61.72,94.85ZM84,71.29V39H58.54v9.79h15.2V70.2c0,7.45-2.6,10.45-9.06,10.45a18.72,18.72,0,0,1-8.26-1.9v8.84C58.76,89.08,63,90,66.8,90,77.83,90,84,83.31,84,71.29Z"/><path class="cls-4" d="M110.16,88.75l-4.86-4.82A27.72,27.72,0,0,1,96.79,64a27.35,27.35,0,0,1,27.4-27.33,28.24,28.24,0,0,1,20,8.55l5.08,5.12c6.5,6.5,9.24,13.11,9.24,20.93a27.31,27.31,0,0,1-27.4,27C122.84,98.29,117.14,95.66,110.16,88.75ZM150.27,64a26.1,26.1,0,1,0-26.08,26.08A26,26,0,0,0,150.27,64Zm-41.71,0c0-9,6.86-16.15,15.63-16.15,8.95.07,15.63,7.2,15.63,16.15S133,80.21,124.19,80.21,108.63,73.16,108.56,64Zm29.95,0a15.82,15.82,0,0,0-1.35-6.54,9.89,9.89,0,0,0-6.43-2.12c-8,0-14.32,6.47-14.32,14.83,0,3.47.62,5.66,2.08,7.6a14.46,14.46,0,0,0,5.7,1.13C132.19,78.89,138.51,72.35,138.51,64Z"/><path class="cls-4" d="M175,90.14l-5.92-5.77A27.77,27.77,0,0,1,160.51,64c0-15.78,12-27.33,28.42-27.33a43.16,43.16,0,0,1,16,3.07l7.6,7.6V60.08c-3.29-2.23-10.08-4.82-15.34-4.82-10.16,0-17,6-17,15.05a12,12,0,0,0,1.9,7.08,19.52,19.52,0,0,0,8,1.57,21.89,21.89,0,0,0,5.33-.62v-1l-1.35-.07-7.27-7.31V59.17h20.86l8,7.63V93.94c-4.27,2.45-12.93,4.35-19.87,4.35C187.43,98.29,180.45,95.48,175,90.14Zm31.78-4.23V60.48H188.12V69h8.62v10.3a22.28,22.28,0,0,1-6.64,1c-10.6,0-17.69-6.43-17.76-16.15s7.42-16.36,18.27-16.36a30.34,30.34,0,0,1,13.29,3v-10a41.46,41.46,0,0,0-15-2.77c-15.67,0-27.11,11-27.11,26a25.76,25.76,0,0,0,8.37,19.5c4.75,4.35,11.14,6.51,18.37,6.58C194.81,90.07,202.55,88.28,206.75,85.91Z"/><path class="cls-4" d="M233.1,88.75l-4.86-4.82A27.69,27.69,0,0,1,219.73,64a27.34,27.34,0,0,1,27.39-27.33,28.24,28.24,0,0,1,20,8.55l5.07,5.12c6.51,6.5,9.25,13.11,9.25,20.93a27.31,27.31,0,0,1-27.4,27C245.77,98.29,240.07,95.66,233.1,88.75ZM273.21,64a26.1,26.1,0,1,0-26.09,26.08A26,26,0,0,0,273.21,64Zm-41.72,0c0-9,6.87-16.15,15.63-16.15,8.95.07,15.64,7.2,15.64,16.15s-6.87,16.22-15.64,16.22S231.56,73.16,231.49,64Zm29.95,0a15.67,15.67,0,0,0-1.35-6.54,9.89,9.89,0,0,0-6.43-2.12c-8,0-14.32,6.47-14.32,14.83,0,3.47.62,5.66,2.09,7.6a14.37,14.37,0,0,0,5.69,1.13C255.12,78.89,261.44,72.35,261.44,64Z"/><path class="cls-5" d="M399,86.7l-5.47-5.46V71.55c3.48,2.07,7,3.61,11.47,3.61a10.35,10.35,0,0,0,5-1c-1.38-.5-2.87-1-4.14-1.48-4.11-1.57-5.17-2.89-8.15-6.34l-2.33-2.71a9.29,9.29,0,0,1-2.18-6.42c0-7.3,6-12.37,14.49-12.37a26,26,0,0,1,10.56,2.26l5.49,5.49v9.37c-2.86-1.81-7.21-3.56-10.4-3.56a8.14,8.14,0,0,0-5.2,1.46c3.61,1,7.91,2.52,10.72,5.39L422.53,69a10.84,10.84,0,0,1,3.13,7.94c0,7.37-6,12.52-14.6,12.52A25.14,25.14,0,0,1,399,86.7Zm21-15a8.6,8.6,0,0,0-2.28-6.11c-3.05-3.18-8.3-4.14-12-5.41-2.15-.69-4.16-1.72-4.16-3.58,0-2.34,2.91-3.9,7.05-3.9a20.14,20.14,0,0,1,8.92,2.46V47.75a25.78,25.78,0,0,0-9.82-2c-8,0-13.53,4.67-13.53,11.41,0,12,18.09,9.23,18.09,15.18,0,2.28-3,3.76-7.21,3.76a20.2,20.2,0,0,1-10.56-3V80.7a26.66,26.66,0,0,0,11.88,2.53C414.38,83.23,420,78.48,420,71.66Z"/><path class="cls-5" d="M425.73,83.17l14-37.73h10.67l7.14,5.47,14.09,37.91H461.13l-6.56-5.46-.69-2H442.1l-2.57,7.43H430.8Zm9.16-.58,2.57-7.43h15.28l2.58,7.43h8L449.9,46.39h-9.5L427,82.59Zm10.24-29.54L451,68.84H439.26Zm4.46,14.84-1.68-4.54-1.61,4.54Z"/><path class="cls-5" d="M478.39,84.82l-4.48-4.46c-3-3-4.62-7.4-4.62-13.21V45.44h9L484.18,51V72a14.14,14.14,0,0,0,.42,3.63,7.42,7.42,0,0,0,1.36.11c4.69,0,7.32-3.21,7.32-9V45.44h9.05L507.9,51V71.36c0,10.8-6.87,18.1-16.93,18.1C485.51,89.46,481.61,88,478.39,84.82Zm23.28-17.67V46.39h-7.43V66.67c0,6.31-3.05,10-8.28,10-5.5,0-8.28-4-8.28-9.89V46.39h-7.43V67.15c0,10.58,5.41,16.34,15.65,16.34S501.67,77.86,501.67,67.15ZM481.08,41.91l4.69-8.68h9.13l3.24,5.84-7.46,7.46H485.4Zm5.28-.56,7.08-7.16h-7.08l-3.91,7.16Z"/><path class="cls-5" d="M513.23,83.28V45.44h13a20.65,20.65,0,0,1,15,6.08L545.7,56a18.67,18.67,0,0,1,5.42,13.82c0,11.2-8.12,19-19.64,19H518.77Zm13-.69c11.17,0,19-7.4,19-18s-7.9-18.15-18.94-18.15H514.18v36.2Zm-4.59-29.11h4.72c6.88.05,11.31,4.32,11.31,11.06s-4.49,11.23-11.41,11.23h-4.62Zm15.07,11.06a12,12,0,0,0-.79-4.4,11.22,11.22,0,0,0-5.18-.88h-2.86V74.73C533.31,74.12,536.68,70.33,536.68,64.54Z"/><path class="cls-5" d="M554.32,83.25V45.44H579.5L585.07,51v6.72h-16.5v2.09H577l5.57,5.57v7.14h-14V75h11.67l5.58,5.57v8.3H559.89Zm25.26-.66V75.9h-17V67.57h13.74V60.78H562.6V53h16.24V46.39H555.28v36.2Z"/><path class="cls-4" d="M352.76,94.22h-26V85.29A14.25,14.25,0,0,1,330.93,75L334,71.9a12.82,12.82,0,0,1,9.5-3.72c7.7,0,13.06,5.58,13.06,13.5v8.73Zm-.48-8.92c0-7.67-5.09-13-12.4-13s-12.47,5.43-12.47,13v8.28h24.87Zm-20,3.16V85.21c0-4.72,3-7.76,7.6-7.76s7.72,3.08,7.72,7.84v3.17Zm7.6-10.36a8.09,8.09,0,0,0-3,.55,7.66,7.66,0,0,0-.61,3.55v2h10.63C346.47,80.42,343.86,78.1,339.88,78.1Z"/><path class="cls-4" d="M352.68,68.39l-25.93-9.61V51.45l3.76-4.9,26.06-9.68v7.2l-3.76,4.5-1.35.48v8.09l5.11,1.77v6Zm-.4-6.29-5.1-1.77V49.83l5.1-1.77V42.54l-24.87,9.24v6.53l24.87,9.25Zm-20.29-7,10.85-4v8ZM342.18,52l-3.12,1.15,3.12,1.11Z"/></svg>