<svg id="Camada_1" data-name="Camada 1" xmlns="http://www.w3.org/2000/svg" viewBox="0 0 332.98 238.49"><defs><style>.cls-1{fill:#c0434c;}.cls-1,.cls-2{stroke:#3c3c3b;stroke-miterlimit:10;stroke-width:6.95px;}.cls-2,.cls-4{fill:#fff;}.cls-3{fill:#3c3c3b;}</style></defs><title>logo-cor</title><rect class="cls-1" x="80.76" y="117.69" width="233.24" height="94.31"/><rect class="cls-2" x="21.08" y="19.9" width="292.92" height="98.22"/><rect class="cls-2" x="21.08" y="118.12" width="59.69" height="93.87"/><path class="cls-3" d="M61.72,94.85l-6.61-6.57V76.77a19.9,19.9,0,0,0,9.57,2.56c5.7,0,7.74-2.37,7.74-9.13V57.38H64.9L57.23,49.7v-12H84.88l7.67,7.67V76c0,13.84-7.41,22.21-19.58,22.21C68.15,98.22,63.84,96.94,61.72,94.85ZM84,71.29V39H58.54v9.79h15.2V70.2c0,7.45-2.6,10.45-9.06,10.45a18.72,18.72,0,0,1-8.26-1.9v8.84C58.76,89.08,63,90,66.8,90,77.83,90,84,83.31,84,71.29Z"/><path class="cls-3" d="M110.16,88.75l-4.86-4.82A27.72,27.72,0,0,1,96.79,64a27.35,27.35,0,0,1,27.4-27.33,28.24,28.24,0,0,1,20,8.55l5.08,5.12c6.5,6.5,9.24,13.11,9.24,20.93a27.31,27.31,0,0,1-27.4,27C122.84,98.29,117.14,95.66,110.16,88.75ZM150.27,64a26.1,26.1,0,1,0-26.08,26.08A26,26,0,0,0,150.27,64Zm-41.71,0c0-9,6.86-16.15,15.63-16.15,8.95.07,15.63,7.2,15.63,16.15S133,80.21,124.19,80.21,108.63,73.16,108.56,64Zm29.95,0a15.82,15.82,0,0,0-1.35-6.54,9.89,9.89,0,0,0-6.43-2.12c-8,0-14.32,6.47-14.32,14.83,0,3.47.62,5.66,2.08,7.6a14.46,14.46,0,0,0,5.7,1.13C132.19,78.89,138.51,72.35,138.51,64Z"/><path class="cls-3" d="M175,90.14l-5.92-5.77A27.77,27.77,0,0,1,160.51,64c0-15.78,12-27.33,28.42-27.33a43.16,43.16,0,0,1,16,3.07l7.6,7.6V60.08c-3.29-2.23-10.08-4.82-15.34-4.82-10.16,0-17,6-17,15.05a12,12,0,0,0,1.9,7.08,19.52,19.52,0,0,0,8,1.57,21.89,21.89,0,0,0,5.33-.62v-1l-1.35-.07-7.27-7.31V59.17h20.86l8,7.63V93.94c-4.27,2.45-12.93,4.35-19.87,4.35C187.43,98.29,180.45,95.48,175,90.14Zm31.78-4.23V60.48H188.12V69h8.62v10.3a22.28,22.28,0,0,1-6.64,1c-10.6,0-17.69-6.43-17.76-16.15s7.42-16.36,18.27-16.36a30.34,30.34,0,0,1,13.29,3v-10a41.46,41.46,0,0,0-15-2.77c-15.67,0-27.11,11-27.11,26a25.76,25.76,0,0,0,8.37,19.5c4.75,4.35,11.14,6.51,18.37,6.58C194.81,90.07,202.55,88.28,206.75,85.91Z"/><path class="cls-3" d="M233.1,88.75l-4.86-4.82A27.69,27.69,0,0,1,219.73,64a27.34,27.34,0,0,1,27.39-27.33,28.24,28.24,0,0,1,20,8.55l5.07,5.12c6.51,6.5,9.25,13.11,9.25,20.93a27.31,27.31,0,0,1-27.4,27C245.77,98.29,240.07,95.66,233.1,88.75ZM273.21,64a26.1,26.1,0,1,0-26.09,26.08A26,26,0,0,0,273.21,64Zm-41.72,0c0-9,6.87-16.15,15.63-16.15,8.95.07,15.64,7.2,15.64,16.15s-6.87,16.22-15.64,16.22S231.56,73.16,231.49,64Zm29.95,0a15.67,15.67,0,0,0-1.35-6.54,9.89,9.89,0,0,0-6.43-2.12c-8,0-14.32,6.47-14.32,14.83,0,3.47.62,5.66,2.09,7.6a14.37,14.37,0,0,0,5.69,1.13C255.12,78.89,261.44,72.35,261.44,64Z"/><path class="cls-4" d="M106.07,184.07l-5.47-5.47v-9.69c3.48,2.07,7,3.61,11.47,3.61a10.51,10.51,0,0,0,5-1c-1.38-.51-2.87-1-4.14-1.49-4.11-1.56-5.17-2.89-8.15-6.34L102.41,161a9.25,9.25,0,0,1-2.18-6.42c0-7.29,6-12.36,14.49-12.36a26,26,0,0,1,10.56,2.25l5.49,5.5v9.36c-2.86-1.8-7.21-3.55-10.4-3.55a8.14,8.14,0,0,0-5.2,1.46c3.61,1,7.91,2.52,10.72,5.38l3.72,3.8a10.82,10.82,0,0,1,3.13,7.93c0,7.38-6,12.53-14.6,12.53A25.26,25.26,0,0,1,106.07,184.07Zm21-15a8.57,8.57,0,0,0-2.28-6.1c-3-3.19-8.3-4.14-12-5.42-2.15-.69-4.17-1.72-4.17-3.58,0-2.33,2.92-3.9,7.06-3.9a20,20,0,0,1,8.92,2.47v-7.38a26,26,0,0,0-9.82-2c-8,0-13.53,4.67-13.53,11.41,0,12.05,18.09,9.24,18.09,15.18,0,2.28-3,3.77-7.21,3.77a20.29,20.29,0,0,1-10.56-3v7.64a26.66,26.66,0,0,0,11.88,2.52C121.46,180.59,127,175.84,127,169Z"/><path class="cls-4" d="M132.81,180.54l14-37.74h10.67l7.14,5.47,14.09,37.92H168.21l-6.56-5.47-.69-2H149.18l-2.57,7.43h-8.73ZM142,180l2.58-7.43h15.28L162.4,180h8L157,143.76h-9.5L134,180Zm10.25-29.53L158,166.21h-11.7Zm4.45,14.83L155,160.72l-1.62,4.53Z"/><path class="cls-4" d="M185.47,182.18,181,177.72c-3-3-4.62-7.4-4.62-13.21V142.8h9l5.84,5.55v21a14.21,14.21,0,0,0,.42,3.64,7.44,7.44,0,0,0,1.36.1c4.69,0,7.32-3.21,7.32-9V142.8h9l5.57,5.58v20.35c0,10.8-6.87,18.1-16.93,18.1C192.58,186.83,188.68,185.39,185.47,182.18Zm23.27-17.67V143.76h-7.42V164c0,6.32-3.06,10-8.28,10-5.5,0-8.28-4-8.28-9.9V143.76h-7.43v20.75c0,10.59,5.41,16.35,15.65,16.35S208.74,175.23,208.74,164.51Zm-20.59-25.24,4.7-8.67H202l3.24,5.84-7.46,7.45h-5.28Zm5.28-.55,7.09-7.17h-7.09l-3.9,7.17Z"/><path class="cls-4" d="M220.3,180.64V142.8h13a20.69,20.69,0,0,1,15,6.08l4.48,4.48a18.68,18.68,0,0,1,5.42,13.83c0,11.2-8.12,19-19.64,19H225.85Zm13-.69c11.17,0,19-7.4,19-18s-7.9-18.15-18.94-18.15H221.26V180Zm-4.59-29.11h4.72c6.88.06,11.31,4.33,11.31,11.07s-4.49,11.22-11.41,11.22h-4.62Zm15.07,11.07a12.08,12.08,0,0,0-.79-4.41,11.26,11.26,0,0,0-5.18-.87h-2.86V172.1C240.39,171.49,243.76,167.69,243.76,161.91Z"/><path class="cls-4" d="M261.4,180.62V142.8h25.18l5.57,5.58v6.71h-16.5v2.1h8.44l5.57,5.57v7.14h-14v2.41h11.67l5.58,5.57v8.31H267Zm25.26-.67v-6.68h-17v-8.34h13.74v-6.79H269.68v-7.8h16.24v-6.58H262.35V180Z"/><path class="cls-3" d="M59.84,191.59h-26v-8.94A14.21,14.21,0,0,1,38,172.35l3.08-3.08a12.82,12.82,0,0,1,9.5-3.72c7.7,0,13.06,5.58,13.06,13.49v8.73Zm-.48-8.92c0-7.68-5.09-13-12.4-13s-12.47,5.44-12.47,13v8.28H59.36Zm-20,3.15v-3.24c0-4.72,3-7.77,7.6-7.77s7.71,3.08,7.71,7.84v3.17ZM47,175.47a8.39,8.39,0,0,0-3,.54,7.84,7.84,0,0,0-.6,3.56v2H54C53.54,177.78,50.94,175.47,47,175.47Z"/><path class="cls-3" d="M59.76,165.76l-25.93-9.61v-7.33l3.76-4.91,26.06-9.68v7.2l-3.76,4.51-1.35.47v8.1l5.11,1.77v6Zm-.4-6.29-5.1-1.77V147.2l5.1-1.77V139.9l-24.87,9.25v6.52l24.87,9.25Zm-20.29-7,10.85-4v8Zm10.19-3.06-3.12,1.14,3.12,1.12Z"/></svg>