<?xml version="1.0" encoding="UTF-8" standalone="no"?>
<!-- Created with Inkscape (http://www.inkscape.org/) -->

<svg
   xmlns:dc="http://purl.org/dc/elements/1.1/"
   xmlns:cc="http://creativecommons.org/ns#"
   xmlns:rdf="http://www.w3.org/1999/02/22-rdf-syntax-ns#"
   xmlns:svg="http://www.w3.org/2000/svg"
   xmlns="http://www.w3.org/2000/svg"
   xmlns:sodipodi="http://sodipodi.sourceforge.net/DTD/sodipodi-0.dtd"
   xmlns:inkscape="http://www.inkscape.org/namespaces/inkscape"
   id="svg2"
   version="1.1"
   inkscape:version="0.91 r13725"
   xml:space="preserve"
   width="611.69623"
   height="125.1"
   viewBox="0 0 611.69623 125.1"
   sodipodi:docname="logo_janssen_long_white.svg"><metadata
     id="metadata8"><rdf:RDF><cc:Work
         rdf:about=""><dc:format>image/svg+xml</dc:format><dc:type
           rdf:resource="http://purl.org/dc/dcmitype/StillImage" /><dc:title></dc:title></cc:Work></rdf:RDF></metadata><defs
     id="defs6"><clipPath
       clipPathUnits="userSpaceOnUse"
       id="clipPath16"><path
         d="m 0,180.08 569.36,0 L 569.36,0 0,0 0,180.08 Z"
         id="path18"
         inkscape:connector-curvature="0" /></clipPath></defs><sodipodi:namedview
     pagecolor="#ffffff"
     bordercolor="#666666"
     borderopacity="1"
     objecttolerance="10"
     gridtolerance="10"
     guidetolerance="10"
     inkscape:pageopacity="0"
     inkscape:pageshadow="2"
     inkscape:window-width="1024"
     inkscape:window-height="698"
     id="namedview4"
     showgrid="false"
     inkscape:zoom="0.59013628"
     inkscape:cx="214.08422"
     inkscape:cy="62.550497"
     inkscape:window-x="0"
     inkscape:window-y="26"
     inkscape:window-maximized="1"
     inkscape:current-layer="g10"
     fit-margin-top="0"
     fit-margin-left="0"
     fit-margin-right="0"
     fit-margin-bottom="0" /><g
     id="g10"
     inkscape:groupmode="layer"
     inkscape:label="jsn_logo_prof_horz_rev_rgb"
     transform="matrix(1.25,0,0,-1.25,-50.000125,175.0995)"><g
       id="g12"
       style="fill:#ffffff"><g
         id="g14"
         clip-path="url(#clipPath16)"
         style="fill:#ffffff"><g
           id="g20"
           transform="translate(197.1441,68.7086)"
           style="fill:#ffffff"><path
             d="m 0,0 0,20.342 c 0,2.627 -1.105,5.521 -5.939,5.521 -2.628,0 -3.888,-0.37 -5.362,-1.001 l 0,-24.862 -4.625,0 0,26.857 c 2.524,1.213 5.832,1.999 10.354,1.999 7.881,0 10.196,-4.361 10.196,-8.41 L 4.624,0 0,0 Z m -33.217,25.863 c -4.098,0 -7.151,-3.316 -7.04,-10.991 l 13.559,2.056 c 0,6.411 -2.47,8.935 -6.519,8.935 m -6.885,-13.459 c 0.524,-6.41 3.522,-9.566 8.62,-9.566 3.208,0 5.517,0.788 6.991,1.631 l 1.209,-3.05 c -1.735,-1.045 -4.733,-1.944 -8.571,-1.944 -7.409,0 -12.613,4.678 -12.613,14.772 0,9.613 4.734,14.609 11.406,14.609 6.781,0 10.881,-4.415 10.775,-13.872 l -17.817,-2.58 z M -59.077,-0.415 c -3.046,0 -5.73,0.789 -7.251,1.94 l 1.259,3.054 c 1.002,-0.843 2.997,-1.686 5.52,-1.686 3.151,0 5.259,2.158 5.259,4.888 0,2.942 -1.582,4.255 -4.682,5.41 -5.516,2.053 -6.621,4.995 -6.621,7.941 0,4.204 3.311,7.779 8.463,7.779 2.889,0 5.152,-0.95 6.623,-1.944 l -1.212,-2.783 c -0.84,0.625 -2.522,1.57 -4.73,1.57 -3.1,0 -4.73,-2.048 -4.73,-4.469 0,-2.73 1.998,-4.047 4.73,-5.096 5.523,-2.103 6.884,-5.047 6.884,-8.308 0,-4.306 -3.73,-8.296 -9.512,-8.296 m -20.705,0 c -3.049,0 -5.727,0.789 -7.253,1.94 l 1.26,3.054 c 1.001,-0.843 2.996,-1.686 5.52,-1.686 3.151,0 5.256,2.158 5.256,4.888 0,2.942 -1.579,4.255 -4.678,5.41 -5.518,2.053 -6.626,4.995 -6.626,7.941 0,4.204 3.314,7.779 8.466,7.779 2.889,0 5.15,-0.95 6.621,-1.944 l -1.207,-2.783 c -0.843,0.625 -2.525,1.57 -4.732,1.57 -3.1,0 -4.73,-2.048 -4.73,-4.469 0,-2.73 1.996,-4.047 4.73,-5.096 5.52,-2.103 6.886,-5.047 6.886,-8.308 0,-4.306 -3.731,-8.296 -9.513,-8.296 M -97.386,0 l 0,20.342 c 0,2.627 -1.105,5.521 -5.94,5.521 -2.631,0 -3.89,-0.37 -5.362,-1.001 l 0,-24.862 -4.625,0 0,26.857 c 2.518,1.213 5.834,1.999 10.354,1.999 7.881,0 10.198,-4.361 10.198,-8.41 l 0,-20.446 -4.625,0 z m -27.755,16.083 c -7.144,-0.891 -11.403,-2.416 -11.403,-8.143 0,-4.102 2.521,-5.782 6.73,-5.782 1.786,0 3.521,0.316 4.673,0.947 l 0,12.978 z m -5.041,-16.608 c -7.36,0 -10.776,3.206 -10.776,8.357 0,7.52 7.044,9.725 15.817,10.617 l 0,1.733 c 0,4.364 -2.627,5.627 -6.251,5.627 -2.736,0 -5.257,-1 -6.834,-1.786 l -1.103,2.732 c 1.629,0.896 4.783,2.101 8.672,2.101 5.256,0 9.881,-2.26 9.881,-9.194 l 0,-18.19 c -2.156,-1.209 -5.468,-1.997 -9.406,-1.997 m -26.962,-11.142 0,3.05 c 2.994,1.107 5.202,3.784 5.202,9.935 l 0,27.015 4.626,0 0,-26.704 c 0,-8.145 -4.786,-12.718 -9.828,-13.296 M 77.576,44.42 c -9.189,0.168 -42.506,1.27 -42.506,1.27 3.12,-4.907 6.341,-13.327 6.341,-22.82 0,-23.094 -10.076,-40.12 -23.1,-51.579 21.994,4.618 38.827,28.919 38.827,55.072 0.023,2.129 -0.016,4.278 -0.106,6.174 l 17.001,5.804 c 2.151,0.75 3.523,1.922 3.531,3.975 0.008,1.389 0.012,2.104 0.012,2.104 m -18.534,6.677 c 0,0 -9.681,-1.852 -25.271,0.51 -13.927,2.115 -26.924,11.294 -28.195,19.764 0,0 5.642,-7.684 27.406,-10.976 0,0 7.186,-1.031 17.392,-1.074 6.447,-0.032 8.668,-8.224 8.668,-8.224 m 42.157,-7.638 -2,0 0,-58.608 2,0 0,58.608 z m 230.589,-3.294 0,-1.421 -3.825,0 0,-1.547 3.523,0 0,-1.433 -3.523,0 0,-2.978 -1.84,0 0,7.379 5.665,0 z m -10.303,-1.85 c -0.314,0.334 -0.794,0.544 -1.296,0.544 -1.118,0 -1.829,-0.983 -1.829,-2.321 0,-1.756 0.982,-2.404 1.849,-2.404 0.878,0 1.82,0.627 1.872,2.174 0.031,0.774 -0.178,1.558 -0.596,2.007 m -1.276,-5.738 c -2.34,0 -3.668,1.798 -3.668,3.929 0,1.997 1.265,3.889 3.637,3.889 0.44,0 0.9,-0.062 1.349,-0.22 2.258,-0.784 2.404,-3.24 2.404,-3.742 0,-1.274 -0.586,-2.425 -1.401,-3.083 -0.721,-0.595 -1.557,-0.773 -2.321,-0.773 m -14.723,2.424 c 0.187,-0.209 0.345,-0.375 0.71,-0.575 0.491,-0.26 0.993,-0.355 1.422,-0.355 0.731,0 1.358,0.346 1.358,0.857 0,0.586 -0.742,0.68 -1.285,0.753 -0.408,0.052 -0.816,0.105 -1.213,0.188 -0.449,0.094 -1.985,0.419 -1.985,2.007 0,1.902 1.693,2.466 2.967,2.466 1.704,0 2.624,-0.825 3.262,-1.4 l -1.359,-0.972 c -0.23,0.23 -0.439,0.429 -0.732,0.596 -0.261,0.146 -0.731,0.324 -1.202,0.324 -0.731,0 -1.098,-0.419 -1.098,-0.773 0,-0.565 0.628,-0.649 0.942,-0.691 0.784,-0.093 1.84,-0.293 2.258,-0.438 0.846,-0.314 1.274,-0.973 1.274,-1.809 0,-0.533 -0.198,-1.118 -0.585,-1.567 -0.669,-0.774 -1.735,-0.993 -2.769,-0.993 -2.081,0 -2.907,0.961 -3.367,1.494 l 1.402,0.888 z m -9.019,5.164 5.456,0 0,-1.432 -3.616,0 0,-1.338 3.376,0 0,-1.4 -3.376,0 0,-1.756 3.94,0 0,-1.453 -5.78,0 0,7.379 z m -2.925,-7.379 -1.84,0 0,7.379 1.84,0 0,-7.379 z m -10.942,7.379 1.809,0 1.598,-2.717 c 0.586,-1.035 0.764,-1.37 1.109,-2.018 l -0.084,4.735 1.766,0 0,-7.379 -1.808,0 -1.379,2.331 c -0.669,1.097 -0.795,1.327 -1.297,2.309 l 0.053,-4.64 -1.767,0 0,7.379 z m -4.963,-1.756 c -0.094,-0.376 -0.198,-0.763 -0.303,-1.139 -0.157,-0.555 -0.439,-1.422 -0.606,-1.976 l 1.871,0 -0.962,3.115 z m 0.993,1.756 2.718,-7.379 -1.965,0 -0.366,1.18 -2.718,0 -0.366,-1.18 -1.965,0 2.74,7.379 1.922,0 z m -9.29,-1.359 0,-2.236 1.108,0 c 0.69,0 1.526,0.02 1.526,1.16 0,1.076 -0.931,1.076 -1.464,1.076 l -1.17,0 z m -1.85,1.359 2.968,0 c 1.212,0 2.289,0 2.937,-0.93 0.282,-0.418 0.419,-1.014 0.419,-1.516 0,-0.408 -0.084,-0.804 -0.251,-1.149 -0.638,-1.317 -1.997,-1.349 -3,-1.37 l -1.223,0 0,-2.414 -1.85,0 0,7.379 z m -2.904,0 0,-7.379 -1.766,0 0.115,5.258 0.021,0.742 -0.063,-0.262 c -0.094,-0.418 -0.104,-0.471 -0.187,-0.784 l -1.391,-4.954 -1.589,0 -1.338,4.745 -0.324,1.317 c 0.032,-0.586 0.032,-0.711 0.063,-1.411 l 0.094,-4.651 -1.787,0 0,7.379 2.696,0 1.129,-4.139 0.262,-1.181 c 0.104,0.512 0.114,0.564 0.198,0.91 l 1.182,4.41 2.685,0 z m -12.801,-1.85 c -0.314,0.334 -0.794,0.544 -1.296,0.544 -1.119,0 -1.829,-0.983 -1.829,-2.321 0,-1.756 0.982,-2.404 1.849,-2.404 0.878,0 1.82,0.627 1.871,2.174 0.032,0.774 -0.177,1.558 -0.595,2.007 m -1.276,-5.738 c -2.341,0 -3.668,1.798 -3.668,3.929 0,1.997 1.265,3.889 3.637,3.889 0.439,0 0.899,-0.062 1.349,-0.22 2.257,-0.784 2.404,-3.24 2.404,-3.742 0,-1.274 -0.586,-2.425 -1.401,-3.083 -0.721,-0.595 -1.557,-0.773 -2.321,-0.773 m -5.223,1.891 c -0.272,-0.428 -0.534,-0.846 -1.119,-1.254 -0.314,-0.219 -1.035,-0.648 -2.059,-0.648 -1.954,0 -3.533,1.422 -3.533,3.92 0,2.185 1.484,3.909 3.575,3.909 0.847,0 1.598,-0.293 2.153,-0.731 0.512,-0.409 0.752,-0.816 0.961,-1.182 l -1.463,-0.731 c -0.104,0.24 -0.229,0.491 -0.553,0.762 -0.356,0.283 -0.711,0.367 -1.014,0.367 -1.193,0 -1.819,-1.109 -1.819,-2.342 0,-1.621 0.826,-2.425 1.819,-2.425 0.961,0 1.347,0.669 1.599,1.097 l 1.453,-0.742 z m -15.949,5.707 1.84,0 0,-5.832 2.885,0 0,-1.557 -4.725,0 0,7.389 z m -5.496,-1.766 c -0.093,-0.376 -0.198,-0.763 -0.303,-1.139 -0.157,-0.555 -0.439,-1.422 -0.606,-1.976 l 1.871,0 -0.962,3.115 z m 0.993,1.756 2.718,-7.379 -1.965,0 -0.366,1.18 -2.718,0 -0.366,-1.18 -1.965,0 2.74,7.379 1.922,0 z m -5.341,-5.697 c -0.272,-0.428 -0.534,-0.846 -1.119,-1.254 -0.314,-0.219 -1.035,-0.648 -2.059,-0.648 -1.954,0 -3.533,1.422 -3.533,3.92 0,2.185 1.484,3.909 3.575,3.909 0.847,0 1.598,-0.293 2.153,-0.731 0.512,-0.409 0.752,-0.816 0.961,-1.182 l -1.463,-0.731 c -0.104,0.24 -0.229,0.491 -0.553,0.762 -0.356,0.283 -0.711,0.367 -1.014,0.367 -1.193,0 -1.819,-1.109 -1.819,-2.342 0,-1.621 0.826,-2.425 1.819,-2.425 0.961,0 1.347,0.669 1.599,1.097 l 1.453,-0.742 z m -9.114,-1.682 -1.84,0 0,7.379 1.84,0 0,-7.379 z m -9.384,7.389 5.686,0 0,-1.463 -1.912,0 0,-5.926 -1.851,0 0,5.926 -1.923,0 0,1.463 z m -1.785,-0.01 0,-4.119 c -0.01,-0.709 -0.021,-1.42 -0.428,-2.089 -0.795,-1.276 -2.436,-1.338 -2.749,-1.338 -0.554,0 -1.213,0.136 -1.714,0.396 -1.422,0.733 -1.422,2.029 -1.411,3.031 l 0,4.119 1.86,0 0,-4.599 c 0,-0.376 0.01,-0.69 0.136,-0.92 0.229,-0.387 0.731,-0.502 1.191,-0.502 1.254,0 1.254,0.857 1.265,1.433 l 0,4.588 1.85,0 z m -14.474,0 5.456,0 0,-1.432 -3.616,0 0,-1.338 3.376,0 0,-1.4 -3.376,0 0,-1.756 3.94,0 0,-1.453 -5.78,0 0,7.379 z m -1.827,-5.697 c -0.272,-0.428 -0.534,-0.846 -1.118,-1.254 -0.315,-0.219 -1.036,-0.648 -2.06,-0.648 -1.954,0 -3.533,1.422 -3.533,3.92 0,2.185 1.484,3.909 3.575,3.909 0.847,0 1.599,-0.293 2.153,-0.731 0.512,-0.409 0.752,-0.816 0.961,-1.182 l -1.463,-0.731 c -0.104,0.24 -0.229,0.491 -0.554,0.762 -0.355,0.283 -0.71,0.367 -1.013,0.367 -1.192,0 -1.82,-1.109 -1.82,-2.342 0,-1.621 0.827,-2.425 1.82,-2.425 0.961,0 1.348,0.669 1.598,1.097 l 1.454,-0.742 z m -11.698,3.941 c -0.093,-0.376 -0.198,-0.763 -0.302,-1.139 -0.158,-0.555 -0.44,-1.422 -0.607,-1.976 l 1.871,0 -0.962,3.115 z m 0.994,1.756 2.717,-7.379 -1.964,0 -0.367,1.18 -2.718,0 -0.366,-1.18 -1.965,0 2.74,7.379 1.923,0 z m -6.417,0 0,-7.379 -1.766,0 0.115,5.258 0.022,0.742 -0.064,-0.262 c -0.094,-0.418 -0.104,-0.471 -0.187,-0.784 l -1.391,-4.954 -1.589,0 -1.338,4.745 -0.323,1.317 c 0.031,-0.586 0.031,-0.711 0.063,-1.411 l 0.093,-4.651 -1.787,0 0,7.379 2.697,0 1.128,-4.139 0.262,-1.181 c 0.105,0.512 0.114,0.564 0.198,0.91 l 1.182,4.41 2.685,0 z m -15.194,-1.379 0,-1.997 1.526,0 c 0.261,0.01 1.108,0.031 1.108,1.014 0,0.941 -0.68,0.972 -1.066,0.983 l -1.568,0 z m -1.85,1.379 3.324,0 c 0.773,-0.01 1.734,-0.021 2.414,-0.752 0.345,-0.387 0.586,-0.973 0.586,-1.642 0,-1.483 -1.015,-1.85 -1.516,-2.038 l 1.703,-2.947 -2.038,0 -1.463,2.633 -1.16,0 0,-2.633 -1.85,0 0,7.379 z m -5.486,-1.756 c -0.093,-0.376 -0.198,-0.763 -0.303,-1.139 -0.157,-0.555 -0.439,-1.422 -0.606,-1.976 l 1.871,0 -0.962,3.115 z m 0.993,1.756 2.718,-7.379 -1.965,0 -0.366,1.18 -2.718,0 -0.366,-1.18 -1.965,0 2.74,7.379 1.922,0 z m -6.416,0 0,-7.379 -1.85,0 0,3.146 -2.697,0 0,-3.146 -1.86,0 0,7.379 1.86,0 0,-2.665 2.697,0 0,2.665 1.85,0 z m -12.801,-1.359 0,-2.236 1.107,0 c 0.69,0 1.526,0.02 1.526,1.16 0,1.076 -0.93,1.076 -1.463,1.076 l -1.17,0 z m -1.851,1.359 2.969,0 c 1.212,0 2.289,0 2.936,-0.93 0.282,-0.418 0.419,-1.014 0.419,-1.516 0,-0.408 -0.084,-0.804 -0.251,-1.149 -0.637,-1.317 -1.997,-1.349 -3,-1.37 l -1.222,0 0,-2.414 -1.851,0 0,7.379 z m 186.928,-28.3 c 0,0.358 0.246,0.534 0.538,0.534 0.488,0 1.271,-0.534 1.664,-1.583 -0.136,0 -0.356,-0.052 -0.526,-0.052 -0.904,0 -1.676,0.433 -1.676,1.101 m -54.965,0 c 0,0.358 0.245,0.534 0.526,0.534 0.508,0 1.225,-0.534 1.647,-1.583 -1.419,0 -2.173,0.295 -2.173,1.049 m 10.612,5.511 c 0,5.644 1.086,6.496 1.444,6.496 0.604,0 0.679,-0.36 0.679,-2.531 0,-2.239 -0.944,-5.166 -2.123,-6.769 l 0,2.804 z M 241.738,3.463 c 0.303,-2.005 0.557,-3.975 0.557,-5.533 0,-3.651 -1.216,-7.895 -3.305,-7.869 -0.797,0 -1.476,0.797 -1.514,2.201 -0.075,4.554 2.098,8.439 4.262,11.201 m 55.503,2.612 c 0.239,-0.662 0.343,-1.211 0.343,-1.716 0,-0.621 -0.243,-1.234 -0.65,-1.234 -0.309,0 -0.615,0.338 -0.615,0.884 0,0.563 0.5,1.471 0.922,2.066 m -54.151,18.12 c 0,-0.222 -0.523,-1.291 -1.213,-3.182 -0.717,-2.001 -1.408,-4.803 -1.408,-8.189 0,-2.008 0.512,-4.675 0.908,-7.362 l -1.202,-1.655 c -1.944,2.369 -3.147,5.027 -3.147,9.606 0,6.45 3.915,10.944 5.909,10.944 0.127,0 0.153,-0.061 0.153,-0.162 M 236.76,5.191 c 0.676,-0.913 1.511,-1.78 2.508,-2.751 -2.023,-3.221 -3.632,-7.057 -3.632,-10.484 0,-2.493 0.587,-4.345 2.412,-4.345 3.788,0 6.651,7.913 6.651,13.775 0,1.739 -0.078,3.478 -0.231,5.253 1.404,1.493 3.559,3.487 4.106,3.68 -0.22,-0.792 -0.385,-1.638 -0.385,-2.43 0,-3.198 1.832,-6.237 5.374,-6.237 3.296,0 5.807,2.707 5.807,6.48 0,0.48 -0.043,0.896 -0.081,1.358 1.217,0.222 2.329,0.534 3.389,1.173 l 0,-7.647 c 0,-0.983 0.667,-1.364 1.317,-1.364 0.896,0 1.344,0.604 1.982,2.002 0.552,1.155 1.979,3.776 2.863,5.336 0.679,1.214 1.061,2.014 1.37,2.014 0.075,0 0.153,-0.188 0.153,-0.636 l 0,-6.512 c 0,-1.762 0.907,-2.204 1.699,-2.204 0.754,0 1.251,0.404 1.765,1.101 1.97,2.822 4.056,6.157 4.897,7.615 0.141,0.257 0.335,0.448 0.477,0.448 0.162,0 0.228,-0.09 0.228,-0.566 l 0,-6.827 c 0,-1.199 0.396,-1.771 1.343,-1.771 0.87,0 1.442,0.604 1.786,1.326 1.265,2.62 3.123,6.093 3.903,7.457 0.191,0.291 0.396,0.569 0.523,0.569 0.127,0 0.179,-0.188 0.179,-0.685 l 0,-6.463 c 0,-1.762 0.896,-2.204 1.699,-2.204 1.078,0 1.765,0.762 2.441,1.618 1.271,1.667 3.071,4.582 4.169,6.442 0.387,-0.606 0.809,-1.346 1.153,-2.123 -0.922,-1.118 -1.826,-2.372 -1.826,-3.695 0,-1.399 0.982,-2.242 2.02,-2.242 1.733,0 3.322,1.687 3.322,3.984 0,0.921 -0.243,1.869 -0.601,2.782 1.563,1.526 3.435,2.993 4.796,3.357 -0.641,-0.933 -1.179,-2.21 -1.179,-3.886 0,-3.198 1.832,-6.237 5.357,-6.237 3.443,0 5.807,2.707 5.807,6.48 0,1.081 -0.038,1.24 -0.102,1.696 0.804,0.324 1.494,0.864 2.017,1.283 0.454,0.364 0.795,0.549 1.063,0.549 0.344,0 0.5,-0.284 0.5,-0.778 l 0,-7.459 c 0,-1.199 0.379,-1.771 1.332,-1.771 0.878,0 1.494,0.604 1.826,1.326 1.242,2.62 3.065,6.128 3.874,7.457 0.203,0.291 0.344,0.522 0.448,0.522 0.167,0 0.243,-0.115 0.243,-0.589 l 0,-5.945 c 0,-1.67 0.754,-2.771 2.426,-2.771 1.754,0 2.638,1.687 4.161,4.27 0.061,0.153 0.104,0.254 0.104,0.375 0,0.342 -0.312,0.521 -0.607,0.521 -0.352,0 -0.552,-0.347 -1.687,-1.601 -0.217,-0.217 -0.448,-0.549 -0.873,-0.549 -0.147,0 -0.248,0.165 -0.248,0.419 l 0,6.627 c 0,1.797 -0.809,2.531 -1.829,2.531 -0.835,0 -1.523,-0.349 -2.251,-1.421 -1.294,-1.893 -2.611,-4.597 -3.339,-5.972 -0.09,-0.138 -0.179,-0.381 -0.284,-0.381 -0.072,0 -0.083,0.127 -0.083,0.381 l 0,4.862 c 0,1.41 -0.387,2.531 -1.881,2.531 -1.56,0 -2.36,-1.083 -3.493,-1.869 -0.728,-0.52 -1.384,-0.901 -1.881,-1.15 -0.754,1.936 -2.161,2.921 -3.337,2.904 -1.175,-0.043 -2.008,-0.754 -2.008,-1.982 0,-1.266 0.757,-2.124 1.78,-2.522 0.572,-0.217 1.101,-0.254 1.875,-0.254 0.223,0 0.439,0 0.595,0.037 0.075,-0.381 0.047,-0.907 0.047,-1.332 0,-1.863 -1.113,-3.718 -3.173,-3.718 -2.117,0 -3.363,2.051 -3.363,4.391 0,1.8 0.529,3.268 1.393,4.296 0.335,0.379 0.607,0.607 0.607,0.983 0,0.161 -0.272,0.216 -0.474,0.216 -1.456,0 -3.054,-0.667 -4.146,-1.213 -1.459,-0.771 -3.167,-2.028 -4.573,-3.279 -0.682,1.511 -1.5,2.854 -1.933,3.888 -0.153,0.408 -0.257,0.882 -0.587,0.882 -0.257,0 -0.372,-0.26 -0.551,-0.778 -0.691,-2.031 -4.346,-7.918 -5.14,-8.707 -0.078,-0.101 -0.191,-0.229 -0.229,-0.229 -0.066,0 -0.104,0.024 -0.104,0.278 l 0,6.627 c 0,1.797 -0.728,2.531 -1.71,2.531 -0.846,0 -1.563,-0.349 -2.265,-1.421 -1.242,-1.893 -2.765,-4.675 -3.478,-6.059 -0.116,-0.208 -0.228,-0.294 -0.269,-0.294 -0.052,0 -0.081,0.168 -0.081,0.381 l 0,4.862 c 0,1.797 -0.722,2.531 -1.707,2.531 -0.832,0 -1.653,-0.318 -2.277,-1.421 -1.609,-2.698 -4.27,-6.838 -4.758,-7.529 -0.064,-0.104 -0.139,-0.202 -0.229,-0.208 -0.066,0 -0.118,0.066 -0.118,0.251 l 0,6.376 c 0,1.797 -0.728,2.531 -1.708,2.531 -1.369,0 -2.132,-1.268 -2.609,-2.054 -0.693,-1.109 -1.6,-2.603 -2.339,-3.964 -0.486,-0.913 -0.911,-1.756 -1.049,-1.756 -0.081,0 -0.081,0.347 -0.081,0.996 l 0,5.082 c 2.392,2.656 3.877,5.939 3.877,9.516 0,2.064 -0.91,3.213 -2.329,3.213 -2.62,0 -4.628,-4.117 -4.628,-8.975 l 0,-3.967 c -1.228,-0.766 -2.366,-1.139 -3.77,-1.405 -0.717,2.115 -2.242,3.216 -3.444,3.199 -1.185,-0.043 -2.017,-0.754 -2.017,-1.982 0,-2.022 1.965,-2.849 3.721,-2.849 l 0.48,0 c 0.096,-0.389 0.096,-0.797 0.096,-1.222 0,-1.863 -1.11,-3.718 -3.173,-3.718 -2.106,0 -3.371,2.051 -3.371,4.391 0,1.8 0.549,3.268 1.404,4.296 0.329,0.379 0.615,0.711 0.615,0.983 0,0.161 -0.286,0.216 -0.511,0.216 -1.436,0 -4.631,-1.953 -8.439,-5.743 -0.344,3.042 -0.72,5.983 -0.72,8.885 0,3.223 0.656,5.987 0.81,6.78 0.074,0.47 0.109,0.791 0.109,1.002 0,0.315 -0.147,0.478 -0.572,0.478 -3.08,0 -9.846,-4.908 -9.846,-12.234 0,-3.004 0.656,-5.148 1.779,-7.003 -0.41,0.061 -0.756,0.061 -1.051,0.061 -1.231,0 -2.366,-0.295 -3.08,-0.468 l 0,0.762 c 0,1.653 -0.381,3.898 -1.086,4.646 -0.067,0.096 -0.168,0.133 -0.283,0.133 -0.321,0 -0.685,-0.168 -1.11,-0.399 -0.451,-0.214 -0.91,-0.453 -0.91,-0.595 0,-0.087 0,-0.141 0.127,-0.346 0.257,-0.376 0.985,-1.133 1.24,-2.924 -1.289,1.288 -2.771,1.866 -4.704,1.866 -2.285,0 -2.967,-1.014 -2.967,-2.051 0,-2.002 2.621,-2.985 5.934,-2.985 0.601,0 1.28,0.122 1.968,0.289 0,-0.609 0.078,-1.144 0.078,-1.609 0,-0.653 0.101,-1.138 0.552,-1.138 0.638,0 1.008,1.288 1.069,3.157 1.202,0.284 2.403,0.57 3.438,0.57 0.491,0 1.089,-0.084 1.716,-0.188 m -7.492,0.384 c -0.65,-0.095 -1.037,-0.095 -1.716,-0.095 -1.479,0 -2.58,0.595 -2.58,1.413 0,0.537 0.269,0.843 1.026,0.843 1.213,0 2.193,-0.843 3.27,-2.161 m -30.639,6.29 c 0,0.358 0.235,0.534 0.529,0.534 0.5,0 1.257,-0.534 1.662,-1.583 -0.151,0 -0.388,-0.052 -0.524,-0.052 -0.907,0 -1.667,0.433 -1.667,1.101 m -54.95,0 c 0,0.358 0.208,0.534 0.514,0.534 0.471,0 1.213,-0.534 1.632,-1.583 -1.404,0 -2.146,0.295 -2.146,1.049 m 10.574,5.511 c 0,5.644 1.112,6.496 1.447,6.496 0.613,0 0.676,-0.36 0.676,-2.531 0,-2.239 -0.936,-5.166 -2.123,-6.769 l 0,2.804 z m 38.592,-5.601 c -0.641,-0.933 -1.181,-2.21 -1.181,-3.886 0,-3.198 1.829,-6.237 5.359,-6.237 3.409,0 5.83,2.707 5.83,6.48 0,1.081 -0.049,1.24 -0.115,1.696 0.791,0.324 1.473,0.864 2.005,1.283 0.462,0.364 0.794,0.549 1.066,0.549 0.344,0 0.497,-0.284 0.497,-0.778 l 0,-7.459 c 0,-1.199 0.387,-1.771 1.332,-1.771 0.869,0 1.479,0.604 1.823,1.326 1.257,2.62 3.085,6.128 3.874,7.457 0.196,0.291 0.332,0.522 0.445,0.522 0.17,0 0.237,-0.115 0.237,-0.589 l 0,-5.945 c 0,-1.67 0.78,-2.771 2.441,-2.771 1.748,0 2.621,1.687 4.14,4.27 0.081,0.153 0.104,0.254 0.104,0.375 0,0.342 -0.294,0.521 -0.586,0.521 -0.362,0 -0.549,-0.347 -1.673,-1.601 -0.237,-0.217 -0.48,-0.549 -0.876,-0.549 -0.15,0 -0.277,0.165 -0.277,0.419 l 0,6.627 c 0,1.797 -0.806,2.531 -1.817,2.531 -0.832,0 -1.523,-0.349 -2.239,-1.421 -1.303,-1.893 -2.621,-4.597 -3.36,-5.972 -0.078,-0.138 -0.194,-0.381 -0.272,-0.381 -0.06,0 -0.098,0.127 -0.098,0.381 l 0,4.862 c 0,1.41 -0.387,2.531 -1.866,2.531 -1.566,0 -2.369,-1.083 -3.496,-1.869 -0.725,-0.52 -1.364,-0.901 -1.864,-1.15 -0.754,1.936 -2.163,2.921 -3.334,2.904 -1.193,-0.043 -2.025,-0.754 -2.025,-1.982 0,-1.266 0.754,-2.124 1.777,-2.522 0.578,-0.217 1.101,-0.254 1.869,-0.254 0.226,0 0.445,0 0.587,0.037 0.101,-0.381 0.063,-0.907 0.063,-1.332 0,-1.863 -1.1,-3.718 -3.155,-3.718 -2.138,0 -3.38,2.051 -3.38,4.391 0,1.8 0.517,3.268 1.384,4.296 0.358,0.379 0.624,0.607 0.624,0.983 0,0.161 -0.266,0.216 -0.497,0.216 -1.444,0 -3.039,-0.667 -4.143,-1.213 -1.442,-0.771 -3.155,-2.028 -4.562,-3.279 -0.681,1.511 -1.525,2.854 -1.932,3.888 -0.168,0.408 -0.266,0.882 -0.578,0.882 -0.252,0 -0.382,-0.26 -0.575,-0.778 -0.688,-2.031 -4.334,-7.918 -5.126,-8.707 -0.078,-0.101 -0.176,-0.229 -0.219,-0.229 -0.084,0 -0.128,0.024 -0.128,0.278 l 0,6.627 c 0,1.797 -0.713,2.531 -1.71,2.531 -0.832,0 -1.548,-0.349 -2.25,-1.421 -1.24,-1.893 -2.759,-4.675 -3.496,-6.059 -0.099,-0.208 -0.217,-0.294 -0.26,-0.294 -0.032,0 -0.081,0.168 -0.081,0.381 l 0,4.862 c 0,1.797 -0.717,2.531 -1.699,2.531 -0.835,0 -1.638,-0.318 -2.288,-1.421 -1.601,-2.698 -4.276,-6.838 -4.758,-7.529 -0.075,-0.104 -0.142,-0.202 -0.22,-0.208 -0.075,0 -0.11,0.066 -0.11,0.251 l 0,6.376 c 0,1.797 -0.716,2.531 -1.719,2.531 -1.363,0 -2.106,-1.268 -2.632,-2.054 -0.679,-1.109 -1.583,-2.603 -2.302,-3.964 -0.486,-0.913 -0.907,-1.756 -1.061,-1.756 -0.089,0 -0.089,0.347 -0.089,0.996 l 0,5.082 c 2.407,2.656 3.889,5.939 3.889,9.516 0,2.064 -0.91,3.213 -2.329,3.213 -2.635,0 -4.614,-4.117 -4.614,-8.975 l 0,-3.967 c -1.225,-0.766 -2.366,-1.139 -3.785,-1.405 -0.713,2.115 -2.239,3.216 -3.452,3.199 -1.179,-0.043 -2.008,-0.754 -2.008,-1.982 0,-2.022 1.97,-2.849 3.721,-2.849 l 0.488,0 c 0.076,-0.389 0.076,-0.797 0.076,-1.222 0,-1.863 -1.101,-3.718 -3.15,-3.718 -2.135,0 -3.386,2.051 -3.386,4.391 0,1.8 0.523,3.268 1.404,4.296 0.335,0.379 0.601,0.711 0.601,0.983 0,0.161 -0.266,0.216 -0.497,0.216 -1.433,0 -4.628,-1.953 -8.427,-5.743 -0.358,3.042 -0.714,5.983 -0.714,8.885 0,3.223 0.639,5.987 0.795,6.78 0.063,0.47 0.112,0.791 0.112,1.002 0,0.315 -0.164,0.478 -0.574,0.478 -3.083,0 -9.841,-4.908 -9.841,-12.234 0,-5.217 1.901,-7.722 5.198,-10.973 -1.994,-3.221 -3.617,-7.057 -3.617,-10.484 0,-2.493 0.589,-4.345 2.403,-4.345 3.797,0 6.648,7.913 6.648,13.775 0,1.739 -0.063,3.478 -0.217,5.253 1.408,1.493 3.569,3.487 4.103,3.68 -0.231,-0.792 -0.381,-1.638 -0.381,-2.43 0,-3.198 1.828,-6.237 5.359,-6.237 3.308,0 5.816,2.707 5.816,6.48 0,0.48 -0.038,0.896 -0.064,1.358 1.19,0.222 2.314,0.534 3.389,1.173 l 0,-7.647 c 0,-0.983 0.662,-1.364 1.314,-1.364 0.873,0 1.318,0.604 1.983,2.002 0.537,1.155 1.967,3.776 2.839,5.336 0.679,1.214 1.058,2.014 1.376,2.014 0.078,0 0.161,-0.188 0.161,-0.636 l 0,-6.512 c 0,-1.762 0.902,-2.204 1.696,-2.204 0.772,0 1.257,0.404 1.743,1.101 2.002,2.822 4.091,6.157 4.917,7.615 0.156,0.257 0.332,0.448 0.499,0.448 0.145,0 0.22,-0.09 0.22,-0.566 l 0,-6.827 c 0,-1.199 0.384,-1.771 1.329,-1.771 0.884,0 1.445,0.604 1.78,1.326 1.262,2.62 3.132,6.093 3.912,7.457 0.19,0.291 0.398,0.569 0.508,0.569 0.156,0 0.194,-0.188 0.194,-0.685 l 0,-6.463 c 0,-1.762 0.898,-2.204 1.716,-2.204 1.06,0 1.739,0.762 2.427,1.618 1.254,1.667 3.08,4.582 4.186,6.442 0.378,-0.606 0.803,-1.346 1.147,-2.123 -0.924,-1.118 -1.84,-2.372 -1.84,-3.695 0,-1.399 0.994,-2.242 2.016,-2.242 1.757,0 3.34,1.687 3.34,3.984 0,0.921 -0.26,1.869 -0.601,2.782 1.557,1.526 3.412,2.993 4.784,3.357 M 130.23,3.463 c 0.306,-2.005 0.589,-3.975 0.589,-5.533 0,-3.651 -1.228,-7.895 -3.313,-7.869 -0.807,0 -1.494,0.797 -1.523,2.201 -0.078,4.554 2.074,8.439 4.247,11.201 m 55.514,2.612 c 0.217,-0.662 0.332,-1.211 0.332,-1.716 0,-0.621 -0.216,-1.234 -0.65,-1.234 -0.28,0 -0.604,0.338 -0.604,0.884 0,0.563 0.5,1.471 0.922,2.066 m -54.145,18.12 c 0,-0.222 -0.537,-1.291 -1.219,-3.182 -0.71,-2.001 -1.407,-4.803 -1.407,-8.189 0,-2.008 0.5,-4.675 0.922,-7.362 l -1.214,-1.655 c -1.956,2.369 -3.154,5.027 -3.154,9.606 0,6.45 3.909,10.944 5.928,10.944 0.121,0 0.144,-0.061 0.144,-0.162"
             style="fill:#ffffff;fill-opacity:1;fill-rule:nonzero;stroke:none"
             id="path22"
             inkscape:connector-curvature="0" /></g></g></g></g></svg>